<svg width="24" height="24" viewBox="0 0 24 24" fill="none" xmlns="http://www.w3.org/2000/svg">
<path d="M17.5735 5.27271L18.1038 4.74238C17.9632 4.60173 17.7724 4.52271 17.5735 4.52271C17.3746 4.52271 17.1838 4.60173 17.0432 4.74238L17.5735 5.27271ZM16.8235 10.6631C16.8235 11.0773 17.1593 11.4131 17.5735 11.4131C17.9877 11.4131 18.3235 11.0773 18.3235 10.6631L16.8235 10.6631ZM15.5751 6.21041C15.2822 6.5033 15.2822 6.97818 15.5751 7.27107C15.868 7.56396 16.3429 7.56396 16.6358 7.27107L15.5751 6.21041ZM18.5112 7.27107C18.8041 7.56396 19.279 7.56396 19.5719 7.27107C19.8647 6.97818 19.8647 6.5033 19.5719 6.21041L18.5112 7.27107ZM16.8235 5.27271L16.8235 10.6631L18.3235 10.6631L18.3235 5.27271L16.8235 5.27271ZM17.0432 4.74238L15.5751 6.21041L16.6358 7.27107L18.1038 5.80304L17.0432 4.74238ZM19.5719 6.21041L18.1038 4.74238L17.0432 5.80304L18.5112 7.27107L19.5719 6.21041Z" fill="black"/>
<path d="M13.987 10.6631L13.4567 11.1934C13.5974 11.3341 13.7881 11.4131 13.987 11.4131C14.186 11.4131 14.3767 11.3341 14.5174 11.1934L13.987 10.6631ZM14.737 5.27271C14.737 4.85849 14.4013 4.52271 13.987 4.52271C13.5728 4.5227 13.237 4.85849 13.237 5.2727L14.737 5.27271ZM15.9854 9.72538C16.2783 9.43249 16.2783 8.95761 15.9854 8.66472C15.6925 8.37183 15.2176 8.37183 14.9247 8.66472L15.9854 9.72538ZM13.0494 8.66472C12.7565 8.37183 12.2816 8.37183 11.9887 8.66472C11.6958 8.95761 11.6958 9.43249 11.9887 9.72538L13.0494 8.66472ZM14.737 10.6631L14.737 5.27271L13.237 5.2727L13.237 10.6631L14.737 10.6631ZM14.5174 11.1934L15.9854 9.72538L14.9247 8.66472L13.4567 10.1327L14.5174 11.1934ZM11.9887 9.72538L13.4567 11.1934L14.5174 10.1327L13.0494 8.66472L11.9887 9.72538Z" fill="black"/>
<circle cx="16" cy="8" r="6" stroke="black" stroke-width="1.5"/>
<path fill-rule="evenodd" clip-rule="evenodd" d="M6.21333 18.5803V20.644C6.21333 20.9295 5.98196 21.1609 5.69685 21.1609H3.63276C3.34719 21.1609 3.11719 20.9295 3.11719 20.644V18.5803H6.21333Z" stroke="black" stroke-width="1.5" stroke-linecap="round" stroke-linejoin="round"/>
<path fill-rule="evenodd" clip-rule="evenodd" d="M16.6632 18.5803V20.644C16.6632 20.9295 16.8945 21.1609 17.1792 21.1609H19.2433C19.5284 21.1609 19.7598 20.9295 19.7598 20.644V18.5803H3.11719H16.6632Z" stroke="black" stroke-width="1.5" stroke-linecap="round" stroke-linejoin="round"/>
<path fill-rule="evenodd" clip-rule="evenodd" d="M5.83593 11.5992C5.83593 11.5992 4.33067 11.5992 4.02962 11.5992C3.38424 11.5992 2.91012 12.966 3.01442 13.0958C3.11143 13.2165 3.25216 13.2907 3.4389 13.2907C3.82557 13.2907 4.72873 13.2907 4.72873 13.2907C4.72873 13.2907 3.11644 14.9035 3.11644 16.1291C3.11644 17.3542 3.11644 18.5803 3.11644 18.5803L5.83593 11.5992Z" stroke="black" stroke-width="1.5" stroke-linecap="round" stroke-linejoin="round"/>
<path d="M19.7599 18.5802V16.1289C19.7599 15.8777 19.6921 15.6103 19.5844 15.3438L18.8691 15.6933L19.7599 18.5802Z" stroke="black" stroke-width="1.5" stroke-linecap="round" stroke-linejoin="round"/>
<path d="M9.28579 13.2906H5.28125C5.28125 13.2906 6.27641 10.2163 6.51279 9.59192C6.74962 8.96886 7.0074 8.625 7.80307 8.625C7.99902 8.625 7.99902 8.625 7.99902 8.625" stroke="black" stroke-width="1.5" stroke-linecap="round" stroke-linejoin="round"/>
<path fill-rule="evenodd" clip-rule="evenodd" d="M8.35131 16.3H6.56641H8.35131Z" stroke="black" stroke-width="1.5" stroke-linecap="round" stroke-linejoin="round"/>
<path fill-rule="evenodd" clip-rule="evenodd" d="M16.2552 16.3H14.4707H16.2552Z" stroke="black" stroke-width="1.5" stroke-linecap="round" stroke-linejoin="round"/>
<path fill-rule="evenodd" clip-rule="evenodd" d="M9.44199 13.2882L7.95312 11.8645L9.44199 13.2882Z" stroke="black" stroke-width="1.5" stroke-linecap="round" stroke-linejoin="round"/>
</svg>
